<svg xmlns="http://www.w3.org/2000/svg" viewBox="0 0 647.06 251.14"><defs><style>.cls-1{fill:#c12525;}.cls-2{fill:#d63030;}.cls-3{fill:#2eb4d8;}</style></defs><title>Asset 26</title><g id="Layer_2" data-name="Layer 2"><g id="Layer_1-2" data-name="Layer 1"><path class="cls-1" d="M43.1,133.8a2,2,0,0,1-1.25-.45,2,2,0,0,1-.3-2.81,364.75,364.75,0,0,1,67.69-64.42A357.35,357.35,0,0,1,270.1,0a2,2,0,0,1,.58,4A353.36,353.36,0,0,0,111.6,69.35a360.55,360.55,0,0,0-66.94,63.71A2,2,0,0,1,43.1,133.8Z"/><path class="cls-1" d="M323.53,18.14C173,18.14,45.18,115.75,0,251.14H647.06C601.88,115.75,474.11,18.14,323.53,18.14Z"/><path class="cls-2" d="M550.14,134.3a2.53,2.53,0,0,1-1.77-.73A321.32,321.32,0,0,0,511.52,102,314.35,314.35,0,0,0,386.79,46.89a2.5,2.5,0,0,1,1-4.9,319.33,319.33,0,0,1,126.7,56,324.73,324.73,0,0,1,37.42,32,2.5,2.5,0,0,1-1.76,4.27Z"/><circle class="cls-1" cx="556.03" cy="81.64" r="8.5"/><circle class="cls-3" cx="108.03" cy="96.02" r="17.88"/><circle class="cls-3" cx="56.5" cy="223.08" r="8.94"/><path class="cls-3" d="M546.63,249.2a8.94,8.94,0,0,0-17.88,0,8.8,8.8,0,0,0,.22,1.94h17.44A8.8,8.8,0,0,0,546.63,249.2Z"/></g></g></svg>