<svg xmlns="http://www.w3.org/2000/svg" viewBox="0 0 143.44 57.76"><defs><style>.cls-1{fill:#fff;}</style></defs><title>logo</title><g id="Layer_2" data-name="Layer 2"><g id="Layer_1-2" data-name="Layer 1"><path class="cls-1" d="M53.31,33.4A4.72,4.72,0,0,0,52,32.24a8.24,8.24,0,0,0-1.63-.76,10.09,10.09,0,0,0-2-.44c-.75-.11-1.45-.18-2.09-.21s-1.4,0-2.23,0H31.64V57.11h10V50.48h2.51q1,0,1.71,0c.49,0,1-.05,1.65-.1a14.49,14.49,0,0,0,1.6-.2,13.6,13.6,0,0,0,1.45-.38,6.58,6.58,0,0,0,1.3-.58,6.1,6.1,0,0,0,1.07-.82,4.29,4.29,0,0,0,.84-1.1,6.56,6.56,0,0,0,.51-1.44A7.8,7.8,0,0,0,54.44,44V37.24a7.13,7.13,0,0,0-.31-2.2A5.36,5.36,0,0,0,53.31,33.4ZM44.45,46.75H41.6V34.63h2.85Z"/><path class="cls-1" d="M78.57,33.4a4.72,4.72,0,0,0-1.3-1.16,8.24,8.24,0,0,0-1.63-.76,10.09,10.09,0,0,0-2-.44c-.75-.11-1.45-.18-2.09-.21s-1.4,0-2.23,0H56.9V57.11h10V50.48h2.51q1,0,1.71,0c.49,0,1-.05,1.65-.1a14.49,14.49,0,0,0,1.6-.2,13.6,13.6,0,0,0,1.45-.38,6.58,6.58,0,0,0,1.3-.58,6.1,6.1,0,0,0,1.07-.82,4.29,4.29,0,0,0,.84-1.1,6.56,6.56,0,0,0,.51-1.44A7.8,7.8,0,0,0,79.7,44V37.24a7.13,7.13,0,0,0-.31-2.2A5.36,5.36,0,0,0,78.57,33.4ZM69.71,46.75H66.86V34.63h2.85Z"/><path class="cls-1" d="M103.85,33.4a4.63,4.63,0,0,0-1.31-1.16,7.92,7.92,0,0,0-1.62-.76A10.26,10.26,0,0,0,99,31q-1.12-.16-2.1-.21c-.65,0-1.39,0-2.23,0H82.16V57.11H94.64c.74,0,1.38,0,1.93,0S97.74,57,98.41,57a9.83,9.83,0,0,0,1.77-.3,14.7,14.7,0,0,0,1.54-.52,4.68,4.68,0,0,0,1.35-.8,6.23,6.23,0,0,0,1-1.14,4.63,4.63,0,0,0,.67-1.56,8.35,8.35,0,0,0,.23-2V37.24a7.12,7.12,0,0,0-.32-2.2A5.58,5.58,0,0,0,103.85,33.4ZM95,53.24H92.15V34.69H95Z"/><rect class="cls-1" x="107.82" y="30.78" width="9.97" height="26.33"/><path class="cls-1" d="M143,34.55A5.44,5.44,0,0,0,142,32.81a6.1,6.1,0,0,0-1.64-1.2,10.15,10.15,0,0,0-1.94-.79,14.37,14.37,0,0,0-2.18-.45q-1.22-.16-2.16-.21c-.63,0-1.31,0-2.06,0s-1.54,0-2.21.05-1.4.11-2.21.22a13.7,13.7,0,0,0-2.15.45,9.83,9.83,0,0,0-1.88.8A5.55,5.55,0,0,0,122,32.85a5.22,5.22,0,0,0-1,1.72,6.49,6.49,0,0,0-.38,2.3V51a7.2,7.2,0,0,0,.36,2.35,5.34,5.34,0,0,0,1,1.74,5.27,5.27,0,0,0,1.51,1.2,10.92,10.92,0,0,0,1.83.78,13.21,13.21,0,0,0,2.16.44c.83.1,1.57.17,2.24.2s1.43,0,2.31,0,1.57,0,2.22,0,1.38-.1,2.22-.21a13.78,13.78,0,0,0,2.18-.43,11,11,0,0,0,1.88-.79,5.23,5.23,0,0,0,1.57-1.2,5.66,5.66,0,0,0,1-1.73,6.6,6.6,0,0,0,.38-2.34V36.87A6.14,6.14,0,0,0,143,34.55Zm-9.56,18.69h-2.85V34.63h2.85Z"/><path class="cls-1" d="M33.77,25.17A1.35,1.35,0,0,0,34.87,23L18.67.56a1.37,1.37,0,0,0-2.21,0L.26,23a1.35,1.35,0,0,0,1.1,2.15H5.9V51a6.46,6.46,0,0,0,.41,2.34,5.3,5.3,0,0,0,1,1.74A5.88,5.88,0,0,0,9,56.27a10.65,10.65,0,0,0,1.91.8,15.94,15.94,0,0,0,2.17.44c.82.11,1.54.18,2.17.21s1.32,0,2.08,0,1.55,0,2.21,0,1.4-.11,2.22-.22a14,14,0,0,0,2.17-.44,10.13,10.13,0,0,0,1.89-.79,5.41,5.41,0,0,0,1.56-1.21,5.53,5.53,0,0,0,1-1.72A6.57,6.57,0,0,0,28.72,51V25.17Zm-15,28.08H15.88V20.82h2.85V53.25Z"/></g></g></svg>